<?xml version="1.0" standalone="no"?>
<!DOCTYPE svg PUBLIC "-//W3C//DTD SVG 20010904//EN"
 "http://www.w3.org/TR/2001/REC-SVG-20010904/DTD/svg10.dtd">
<svg version="1.0" xmlns="http://www.w3.org/2000/svg"
 width="1128.000000pt" height="600.000000pt" viewBox="0 0 1128.000000 600.000000"
 preserveAspectRatio="xMidYMid meet">

<g transform="translate(0.000000,600.000000) scale(0.100000,-0.100000)"
fill="#000000" stroke="none">
<path d="M10981 5993 c1 -5 0 -11 -1 -15 -1 -5 -4 -12 -5 -18 -1 -5 -4 -12 -5
-15 -1 -3 -3 -8 -5 -12 -1 -5 -14 -33 -28 -63 -14 -30 -111 -239 -216 -465
-120 -261 -194 -409 -203 -408 -34 5 -73 15 -90 24 -10 5 -18 7 -18 3 0 -3 -7
-1 -15 6 -8 7 -15 10 -15 7 0 -3 -16 1 -35 9 -19 8 -35 12 -35 10 0 -3 -16 2
-35 10 -19 8 -35 11 -35 8 0 -4 -6 -2 -12 4 -7 5 -29 13 -48 18 -19 4 -37 8
-40 9 -3 1 -36 11 -75 23 -38 13 -78 25 -87 28 -17 5 -18 -10 -18 -230 0 -136
-4 -236 -9 -236 -5 0 -104 98 -219 217 l-210 216 -12 -71 c-6 -39 -8 -77 -4
-83 4 -7 3 -9 -3 -6 -12 8 -28 -77 -18 -93 3 -5 1 -10 -6 -10 -7 0 -10 -11 -7
-29 3 -18 0 -27 -5 -24 -6 3 -8 -7 -5 -25 3 -19 0 -29 -5 -25 -6 4 -8 -8 -4
-31 4 -25 2 -34 -5 -30 -8 5 -9 -3 -5 -25 5 -22 3 -30 -4 -25 -8 5 -10 -3 -7
-24 3 -19 0 -29 -5 -25 -6 4 -8 -8 -4 -31 3 -22 2 -34 -4 -31 -5 4 -9 -5 -9
-20 0 -14 -6 -28 -13 -30 -7 -3 -140 31 -295 75 -156 44 -289 80 -295 80 -7 0
-77 -65 -156 -145 -78 -80 -146 -145 -150 -145 -5 0 -134 -61 -287 -136 -153
-75 -448 -217 -654 -317 -206 -99 -377 -183 -380 -186 -3 -3 -9 -7 -15 -7 -5
-1 -120 -36 -255 -77 -319 -99 -293 -94 -327 -64 -52 47 -258 207 -265 207 -8
0 -426 -492 -452 -532 -9 -14 -24 -29 -33 -32 -17 -7 -17 -3 2 219 2 33 7 90
9 126 3 37 6 70 7 75 1 5 1 19 0 32 -1 20 -33 -8 -190 -159 -104 -101 -187
-188 -185 -193 2 -6 48 -24 102 -39 171 -50 233 -69 229 -73 -2 -2 -79 19
-172 46 -93 28 -175 49 -181 48 -6 -2 -163 -95 -348 -208 l-337 -205 5 -70 c3
-38 22 -218 42 -398 20 -181 33 -331 30 -335 -7 -6 -68 55 -399 397 l-187 193
0 -43 c-1 -24 -7 -174 -15 -334 -8 -159 -14 -399 -14 -531 l0 -242 -26 -6
c-14 -4 -25 -11 -25 -16 0 -5 -6 -7 -14 -4 -8 3 -50 -1 -93 -10 -43 -9 -91
-18 -108 -21 -139 -24 -497 -94 -501 -98 -2 -1 10 -53 26 -115 l28 -113 -21
-9 c-12 -5 -159 -44 -327 -86 -168 -43 -309 -81 -314 -85 -8 -8 7 -592 20
-741 l6 -68 -26 0 c-14 0 -168 31 -341 70 -172 38 -321 67 -329 64 -12 -5 -2
-32 52 -140 l67 -134 104 0 103 0 -133 108 c-73 59 -147 120 -164 135 l-30 29
30 -20 c17 -12 93 -73 170 -136 l140 -115 4378 -1 4377 0 0 3000 0 3000 -150
0 c-82 0 -149 -3 -149 -7z"/>
</g>
</svg>
